<?xml version="1.0" encoding="utf-8"?>
<!-- Generator: Adobe Illustrator 27.4.1, SVG Export Plug-In . SVG Version: 6.00 Build 0)  -->
<svg version="1.1" id="Layer_1" xmlns="http://www.w3.org/2000/svg" xmlns:xlink="http://www.w3.org/1999/xlink" x="0px" y="0px"
	 viewBox="0 0 80 20" style="enable-background:new 0 0 80 20;" xml:space="preserve">
<style type="text/css">
	.st0{fill:#1F1E25;}
</style>
<path class="st0" d="M11.2,11.6h2.1l0.9-3.2h-3V6.8c0-0.8,0-1.6,1.7-1.6h1.3V2.5c-0.3,0-1.3-0.1-2.4-0.1c-2.3,0-4,1.3-4,3.8v2.2H5.2
	v3.2h2.6v6.8h3.4V11.6z"/>
<path class="st0" d="M30,2c2.2,0,2.4,0,3.3,0c0.9,0,1.4,0.2,1.9,0.4c0.5,0.2,1,0.5,1.4,0.9c0.4,0.4,0.7,0.9,0.9,1.4
	c0.2,0.5,0.3,1.1,0.4,1.9c0,0.9,0,1.1,0,3.3s0,2.4,0,3.3c0,0.9-0.2,1.4-0.4,1.9c-0.2,0.5-0.5,1-0.9,1.4c-0.4,0.4-0.9,0.7-1.4,0.9
	c-0.5,0.2-1.1,0.3-1.9,0.4c-0.9,0-1.1,0-3.3,0s-2.4,0-3.3,0c-0.9,0-1.4-0.2-1.9-0.4c-0.5-0.2-1-0.5-1.4-0.9
	c-0.4-0.4-0.7-0.9-0.9-1.4c-0.2-0.5-0.3-1.1-0.4-1.9c0-0.9,0-1.1,0-3.3s0-2.4,0-3.3c0-0.9,0.2-1.4,0.4-1.9c0.2-0.5,0.5-1,0.9-1.4
	c0.4-0.4,0.9-0.7,1.4-0.9c0.5-0.2,1.1-0.3,1.9-0.4C27.6,2,27.8,2,30,2z M30,6c-1.1,0-2.1,0.4-2.8,1.2C26.4,7.9,26,8.9,26,10
	s0.4,2.1,1.2,2.8c0.8,0.8,1.8,1.2,2.8,1.2c1.1,0,2.1-0.4,2.8-1.2c0.8-0.8,1.2-1.8,1.2-2.8s-0.4-2.1-1.2-2.8C32.1,6.4,31.1,6,30,6z
	 M35.2,5.8c0-0.3-0.1-0.5-0.3-0.7c-0.2-0.2-0.4-0.3-0.7-0.3c-0.3,0-0.5,0.1-0.7,0.3c-0.2,0.2-0.3,0.4-0.3,0.7c0,0.3,0.1,0.5,0.3,0.7
	c0.2,0.2,0.4,0.3,0.7,0.3c0.3,0,0.5-0.1,0.7-0.3C35.1,6.3,35.2,6.1,35.2,5.8z M30,7.6c0.6,0,1.2,0.3,1.7,0.7
	c0.4,0.5,0.7,1.1,0.7,1.7s-0.3,1.2-0.7,1.7c-0.5,0.5-1.1,0.7-1.7,0.7c-0.6,0-1.2-0.3-1.7-0.7c-0.5-0.5-0.7-1.1-0.7-1.7
	s0.3-1.2,0.7-1.7C28.8,7.9,29.4,7.6,30,7.6z"/>
<path class="st0" d="M58.3,5c-0.6,0.3-1.2,0.4-1.9,0.5c0.7-0.4,1.2-1.1,1.4-1.8c-0.6,0.4-1.3,0.7-2.1,0.8c-0.5-0.5-1.1-0.9-1.9-1
	c-0.7-0.1-1.4,0-2.1,0.3c-0.6,0.3-1.1,0.9-1.4,1.5c-0.3,0.7-0.4,1.4-0.2,2.1c-1.3-0.1-2.6-0.4-3.7-1c-1.2-0.6-2.2-1.4-3-2.4
	C43.1,4.6,43,5.2,43,5.8c0,1.1,0.6,2.1,1.5,2.7c-0.5,0-1-0.2-1.5-0.4v0c0,0.8,0.3,1.5,0.7,2.1c0.5,0.6,1.1,1,1.9,1.1
	c-0.5,0.1-1,0.2-1.5,0.1c0.2,0.7,0.6,1.2,1.2,1.6s1.2,0.6,1.9,0.6c-0.7,0.5-1.5,0.9-2.3,1.2c-0.8,0.2-1.7,0.3-2.6,0.2
	c1.5,1,3.2,1.5,5,1.5c6,0,9.3-5,9.3-9.3c0-0.1,0-0.3,0-0.4C57.3,6.3,57.8,5.7,58.3,5L58.3,5z"/>
<path class="st0" d="M77.6,5.5C78,7,78,10,78,10s0,3-0.4,4.5c-0.2,0.8-0.8,1.4-1.6,1.6c-1.4,0.4-6.1,0.4-6.1,0.4s-4.7,0-6.1-0.4
	c-0.8-0.2-1.3-0.8-1.6-1.6C62,13,62,10,62,10s0-3,0.4-4.5c0.2-0.8,0.8-1.4,1.6-1.6C65.3,3.5,70,3.5,70,3.5s4.7,0,6.1,0.4
	C76.8,4.1,77.4,4.7,77.6,5.5z M68.4,12.8l4.8-2.8l-4.8-2.8V12.8z"/>
</svg>
